<svg width="64" height="64" viewBox="0 0 64 64" fill="none" xmlns="http://www.w3.org/2000/svg">
<g clip-path="url(#clip0_148_4730)">
<mask id="mask0_148_4730" style="mask-type:luminance" maskUnits="userSpaceOnUse" x="0" y="0" width="64" height="64">
<path d="M64 0H0V64H64V0Z" fill="white"/>
</mask>
<g mask="url(#mask0_148_4730)">
<path d="M64 0H0V64H64V0Z" fill="#6A5ACD"/>
<path d="M57.2001 6.80005H6.80005V57.2001H57.2001V6.80005Z" stroke="#FBFBFB" stroke-width="0.6"/>
<path d="M16.276 30.545C16.102 30.179 15.85 29.897 15.52 29.699C15.19 29.495 14.806 29.393 14.368 29.393C13.93 29.393 13.534 29.495 13.18 29.699C12.832 29.897 12.556 30.185 12.352 30.563C12.154 30.935 12.055 31.367 12.055 31.859C12.055 32.351 12.154 32.783 12.352 33.155C12.556 33.527 12.832 33.815 13.18 34.019C13.534 34.217 13.93 34.316 14.368 34.316C14.98 34.316 15.484 34.133 15.88 33.767C16.276 33.401 16.507 32.906 16.573 32.282H14.071V31.616H17.446V32.246C17.398 32.762 17.236 33.236 16.96 33.668C16.684 34.094 16.321 34.433 15.871 34.685C15.421 34.931 14.92 35.054 14.368 35.054C13.786 35.054 13.255 34.919 12.775 34.649C12.295 34.373 11.914 33.992 11.632 33.506C11.356 33.02 11.218 32.471 11.218 31.859C11.218 31.247 11.356 30.698 11.632 30.212C11.914 29.72 12.295 29.339 12.775 29.069C13.255 28.793 13.786 28.655 14.368 28.655C15.034 28.655 15.622 28.82 16.132 29.15C16.648 29.48 17.023 29.945 17.257 30.545H16.276ZM20.6259 35.081C20.1639 35.081 19.7439 34.976 19.3659 34.766C18.9939 34.556 18.6999 34.259 18.4839 33.875C18.2739 33.485 18.1689 33.035 18.1689 32.525C18.1689 32.021 18.2769 31.577 18.4929 31.193C18.7149 30.803 19.0149 30.506 19.3929 30.302C19.7709 30.092 20.1939 29.987 20.6619 29.987C21.1299 29.987 21.5529 30.092 21.9309 30.302C22.3089 30.506 22.6059 30.8 22.8219 31.184C23.0439 31.568 23.1549 32.015 23.1549 32.525C23.1549 33.035 23.0409 33.485 22.8129 33.875C22.5909 34.259 22.2879 34.556 21.9039 34.766C21.5199 34.976 21.0939 35.081 20.6259 35.081ZM20.6259 34.361C20.9199 34.361 21.1959 34.292 21.4539 34.154C21.7119 34.016 21.9189 33.809 22.0749 33.533C22.2369 33.257 22.3179 32.921 22.3179 32.525C22.3179 32.129 22.2399 31.793 22.0839 31.517C21.9279 31.241 21.7239 31.037 21.4719 30.905C21.2199 30.767 20.9469 30.698 20.6529 30.698C20.3529 30.698 20.0769 30.767 19.8249 30.905C19.5789 31.037 19.3809 31.241 19.2309 31.517C19.0809 31.793 19.0059 32.129 19.0059 32.525C19.0059 32.927 19.0779 33.266 19.2219 33.542C19.3719 33.818 19.5699 34.025 19.8159 34.163C20.0619 34.295 20.3319 34.361 20.6259 34.361ZM26.3287 35.081C25.8667 35.081 25.4467 34.976 25.0687 34.766C24.6967 34.556 24.4027 34.259 24.1867 33.875C23.9767 33.485 23.8717 33.035 23.8717 32.525C23.8717 32.021 23.9797 31.577 24.1957 31.193C24.4177 30.803 24.7177 30.506 25.0957 30.302C25.4737 30.092 25.8967 29.987 26.3647 29.987C26.8327 29.987 27.2557 30.092 27.6337 30.302C28.0117 30.506 28.3087 30.8 28.5247 31.184C28.7467 31.568 28.8577 32.015 28.8577 32.525C28.8577 33.035 28.7437 33.485 28.5157 33.875C28.2937 34.259 27.9907 34.556 27.6067 34.766C27.2227 34.976 26.7967 35.081 26.3287 35.081ZM26.3287 34.361C26.6227 34.361 26.8987 34.292 27.1567 34.154C27.4147 34.016 27.6217 33.809 27.7777 33.533C27.9397 33.257 28.0207 32.921 28.0207 32.525C28.0207 32.129 27.9427 31.793 27.7867 31.517C27.6307 31.241 27.4267 31.037 27.1747 30.905C26.9227 30.767 26.6497 30.698 26.3557 30.698C26.0557 30.698 25.7797 30.767 25.5277 30.905C25.2817 31.037 25.0837 31.241 24.9337 31.517C24.7837 31.793 24.7087 32.129 24.7087 32.525C24.7087 32.927 24.7807 33.266 24.9247 33.542C25.0747 33.818 25.2727 34.025 25.5187 34.163C25.7647 34.295 26.0347 34.361 26.3287 34.361ZM30.6996 30.869C30.8436 30.587 31.0476 30.368 31.3116 30.212C31.5816 30.056 31.9086 29.978 32.2926 29.978V30.824H32.0766C31.1586 30.824 30.6996 31.322 30.6996 32.318V35H29.8806V30.068H30.6996V30.869ZM35.335 35.081C34.873 35.081 34.453 34.976 34.075 34.766C33.703 34.556 33.409 34.259 33.193 33.875C32.983 33.485 32.878 33.035 32.878 32.525C32.878 32.021 32.986 31.577 33.202 31.193C33.424 30.803 33.724 30.506 34.102 30.302C34.48 30.092 34.903 29.987 35.371 29.987C35.839 29.987 36.262 30.092 36.64 30.302C37.018 30.506 37.315 30.8 37.531 31.184C37.753 31.568 37.864 32.015 37.864 32.525C37.864 33.035 37.75 33.485 37.522 33.875C37.3 34.259 36.997 34.556 36.613 34.766C36.229 34.976 35.803 35.081 35.335 35.081ZM35.335 34.361C35.629 34.361 35.905 34.292 36.163 34.154C36.421 34.016 36.628 33.809 36.784 33.533C36.946 33.257 37.027 32.921 37.027 32.525C37.027 32.129 36.949 31.793 36.793 31.517C36.637 31.241 36.433 31.037 36.181 30.905C35.929 30.767 35.656 30.698 35.362 30.698C35.062 30.698 34.786 30.767 34.534 30.905C34.288 31.037 34.09 31.241 33.94 31.517C33.79 31.793 33.715 32.129 33.715 32.525C33.715 32.927 33.787 33.266 33.931 33.542C34.081 33.818 34.279 34.025 34.525 34.163C34.771 34.295 35.041 34.361 35.335 34.361ZM41.0378 35.081C40.5758 35.081 40.1558 34.976 39.7778 34.766C39.4058 34.556 39.1118 34.259 38.8958 33.875C38.6858 33.485 38.5808 33.035 38.5808 32.525C38.5808 32.021 38.6888 31.577 38.9048 31.193C39.1268 30.803 39.4268 30.506 39.8048 30.302C40.1828 30.092 40.6058 29.987 41.0738 29.987C41.5418 29.987 41.9648 30.092 42.3428 30.302C42.7208 30.506 43.0178 30.8 43.2338 31.184C43.4558 31.568 43.5668 32.015 43.5668 32.525C43.5668 33.035 43.4528 33.485 43.2248 33.875C43.0028 34.259 42.6998 34.556 42.3158 34.766C41.9318 34.976 41.5058 35.081 41.0378 35.081ZM41.0378 34.361C41.3318 34.361 41.6078 34.292 41.8658 34.154C42.1238 34.016 42.3308 33.809 42.4868 33.533C42.6488 33.257 42.7298 32.921 42.7298 32.525C42.7298 32.129 42.6518 31.793 42.4958 31.517C42.3398 31.241 42.1358 31.037 41.8838 30.905C41.6318 30.767 41.3588 30.698 41.0648 30.698C40.7648 30.698 40.4888 30.767 40.2368 30.905C39.9908 31.037 39.7928 31.241 39.6428 31.517C39.4928 31.793 39.4178 32.129 39.4178 32.525C39.4178 32.927 39.4898 33.266 39.6338 33.542C39.7838 33.818 39.9818 34.025 40.2278 34.163C40.4738 34.295 40.7438 34.361 41.0378 34.361ZM50.5206 29.978C50.9046 29.978 51.2466 30.059 51.5466 30.221C51.8466 30.377 52.0836 30.614 52.2576 30.932C52.4316 31.25 52.5186 31.637 52.5186 32.093V35H51.7086V32.21C51.7086 31.718 51.5856 31.343 51.3396 31.085C51.0996 30.821 50.7726 30.689 50.3586 30.689C49.9327 30.689 49.5937 30.827 49.3417 31.103C49.0897 31.373 48.9637 31.766 48.9637 32.282V35H48.1537V32.21C48.1537 31.718 48.0307 31.343 47.7847 31.085C47.5447 30.821 47.2177 30.689 46.8037 30.689C46.3777 30.689 46.0387 30.827 45.7867 31.103C45.5347 31.373 45.4087 31.766 45.4087 32.282V35H44.5897V30.068H45.4087V30.779C45.5707 30.521 45.7867 30.323 46.0567 30.185C46.3327 30.047 46.6357 29.978 46.9657 29.978C47.3797 29.978 47.7457 30.071 48.0637 30.257C48.3817 30.443 48.6187 30.716 48.7747 31.076C48.9127 30.728 49.1407 30.458 49.4587 30.266C49.7767 30.074 50.1306 29.978 50.5206 29.978Z" fill="#FBFBFB"/>
<path d="M30 27L41 19.5" stroke="#FBFBFB" stroke-width="2" stroke-linecap="round"/>
<path d="M41 19.5L52 27" stroke="#FBFBFB" stroke-width="2" stroke-linecap="round"/>
</g>
</g>
<defs>
<clipPath id="clip0_148_4730">
<rect width="64" height="64" fill="white"/>
</clipPath>
</defs>
</svg>
