<svg width="64" height="36" viewBox="0 0 64 36" fill="none" xmlns="http://www.w3.org/2000/svg">
<g clip-path="url(#clip0_148_5078)">
<mask id="mask0_148_5078" style="mask-type:luminance" maskUnits="userSpaceOnUse" x="0" y="0" width="64" height="36">
<path d="M64 0H0V36H64V0Z" fill="white"/>
</mask>
<g mask="url(#mask0_148_5078)">
<path d="M64 0H0V36H64V0Z" fill="#6A5ACD"/>
<mask id="mask1_148_5078" style="mask-type:luminance" maskUnits="userSpaceOnUse" x="6" y="7" width="52" height="23">
<path d="M6.5 7H57.5V29.5H6.5V7Z" fill="#FBFBFB"/>
</mask>
<g mask="url(#mask1_148_5078)">
<path d="M57.5 28.9H6.5V30.1H57.5V28.9Z" fill="#FBFBFB"/>
</g>
<path d="M16.276 20.67C16.102 20.304 15.85 20.022 15.52 19.824C15.19 19.62 14.806 19.518 14.368 19.518C13.93 19.518 13.534 19.62 13.18 19.824C12.832 20.022 12.556 20.31 12.352 20.688C12.154 21.06 12.055 21.492 12.055 21.984C12.055 22.476 12.154 22.908 12.352 23.28C12.556 23.652 12.832 23.94 13.18 24.144C13.534 24.342 13.93 24.441 14.368 24.441C14.98 24.441 15.484 24.258 15.88 23.892C16.276 23.526 16.507 23.031 16.573 22.407H14.071V21.741H17.446V22.371C17.398 22.887 17.236 23.361 16.96 23.793C16.684 24.219 16.321 24.558 15.871 24.81C15.421 25.056 14.92 25.179 14.368 25.179C13.786 25.179 13.255 25.044 12.775 24.774C12.295 24.498 11.914 24.117 11.632 23.631C11.356 23.145 11.218 22.596 11.218 21.984C11.218 21.372 11.356 20.823 11.632 20.337C11.914 19.845 12.295 19.464 12.775 19.194C13.255 18.918 13.786 18.78 14.368 18.78C15.034 18.78 15.622 18.945 16.132 19.275C16.648 19.605 17.023 20.07 17.257 20.67H16.276ZM20.6259 25.206C20.1639 25.206 19.7439 25.101 19.3659 24.891C18.9939 24.681 18.6999 24.384 18.4839 24C18.2739 23.61 18.1689 23.16 18.1689 22.65C18.1689 22.146 18.2769 21.702 18.4929 21.318C18.7149 20.928 19.0149 20.631 19.3929 20.427C19.7709 20.217 20.1939 20.112 20.6619 20.112C21.1299 20.112 21.5529 20.217 21.9309 20.427C22.3089 20.631 22.6059 20.925 22.8219 21.309C23.0439 21.693 23.1549 22.14 23.1549 22.65C23.1549 23.16 23.0409 23.61 22.8129 24C22.5909 24.384 22.2879 24.681 21.9039 24.891C21.5199 25.101 21.0939 25.206 20.6259 25.206ZM20.6259 24.486C20.9199 24.486 21.1959 24.417 21.4539 24.279C21.7119 24.141 21.9189 23.934 22.0749 23.658C22.2369 23.382 22.3179 23.046 22.3179 22.65C22.3179 22.254 22.2399 21.918 22.0839 21.642C21.9279 21.366 21.7239 21.162 21.4719 21.03C21.2199 20.892 20.9469 20.823 20.6529 20.823C20.3529 20.823 20.0769 20.892 19.8249 21.03C19.5789 21.162 19.3809 21.366 19.2309 21.642C19.0809 21.918 19.0059 22.254 19.0059 22.65C19.0059 23.052 19.0779 23.391 19.2219 23.667C19.3719 23.943 19.5699 24.15 19.8159 24.288C20.0619 24.42 20.3319 24.486 20.6259 24.486ZM26.3287 25.206C25.8667 25.206 25.4467 25.101 25.0687 24.891C24.6967 24.681 24.4027 24.384 24.1867 24C23.9767 23.61 23.8717 23.16 23.8717 22.65C23.8717 22.146 23.9797 21.702 24.1957 21.318C24.4177 20.928 24.7177 20.631 25.0957 20.427C25.4737 20.217 25.8967 20.112 26.3647 20.112C26.8327 20.112 27.2557 20.217 27.6337 20.427C28.0117 20.631 28.3087 20.925 28.5247 21.309C28.7467 21.693 28.8577 22.14 28.8577 22.65C28.8577 23.16 28.7437 23.61 28.5157 24C28.2937 24.384 27.9907 24.681 27.6067 24.891C27.2227 25.101 26.7967 25.206 26.3287 25.206ZM26.3287 24.486C26.6227 24.486 26.8987 24.417 27.1567 24.279C27.4147 24.141 27.6217 23.934 27.7777 23.658C27.9397 23.382 28.0207 23.046 28.0207 22.65C28.0207 22.254 27.9427 21.918 27.7867 21.642C27.6307 21.366 27.4267 21.162 27.1747 21.03C26.9227 20.892 26.6497 20.823 26.3557 20.823C26.0557 20.823 25.7797 20.892 25.5277 21.03C25.2817 21.162 25.0837 21.366 24.9337 21.642C24.7837 21.918 24.7087 22.254 24.7087 22.65C24.7087 23.052 24.7807 23.391 24.9247 23.667C25.0747 23.943 25.2727 24.15 25.5187 24.288C25.7647 24.42 26.0347 24.486 26.3287 24.486ZM30.6996 20.994C30.8436 20.712 31.0476 20.493 31.3116 20.337C31.5816 20.181 31.9086 20.103 32.2926 20.103V20.949H32.0766C31.1586 20.949 30.6996 21.447 30.6996 22.443V25.125H29.8806V20.193H30.6996V20.994ZM35.335 25.206C34.873 25.206 34.453 25.101 34.075 24.891C33.703 24.681 33.409 24.384 33.193 24C32.983 23.61 32.878 23.16 32.878 22.65C32.878 22.146 32.986 21.702 33.202 21.318C33.424 20.928 33.724 20.631 34.102 20.427C34.48 20.217 34.903 20.112 35.371 20.112C35.839 20.112 36.262 20.217 36.64 20.427C37.018 20.631 37.315 20.925 37.531 21.309C37.753 21.693 37.864 22.14 37.864 22.65C37.864 23.16 37.75 23.61 37.522 24C37.3 24.384 36.997 24.681 36.613 24.891C36.229 25.101 35.803 25.206 35.335 25.206ZM35.335 24.486C35.629 24.486 35.905 24.417 36.163 24.279C36.421 24.141 36.628 23.934 36.784 23.658C36.946 23.382 37.027 23.046 37.027 22.65C37.027 22.254 36.949 21.918 36.793 21.642C36.637 21.366 36.433 21.162 36.181 21.03C35.929 20.892 35.656 20.823 35.362 20.823C35.062 20.823 34.786 20.892 34.534 21.03C34.288 21.162 34.09 21.366 33.94 21.642C33.79 21.918 33.715 22.254 33.715 22.65C33.715 23.052 33.787 23.391 33.931 23.667C34.081 23.943 34.279 24.15 34.525 24.288C34.771 24.42 35.041 24.486 35.335 24.486ZM41.0378 25.206C40.5758 25.206 40.1558 25.101 39.7778 24.891C39.4058 24.681 39.1118 24.384 38.8958 24C38.6858 23.61 38.5808 23.16 38.5808 22.65C38.5808 22.146 38.6888 21.702 38.9048 21.318C39.1268 20.928 39.4268 20.631 39.8048 20.427C40.1828 20.217 40.6058 20.112 41.0738 20.112C41.5418 20.112 41.9648 20.217 42.3428 20.427C42.7208 20.631 43.0178 20.925 43.2338 21.309C43.4558 21.693 43.5668 22.14 43.5668 22.65C43.5668 23.16 43.4528 23.61 43.2248 24C43.0028 24.384 42.6998 24.681 42.3158 24.891C41.9318 25.101 41.5058 25.206 41.0378 25.206ZM41.0378 24.486C41.3318 24.486 41.6078 24.417 41.8658 24.279C42.1238 24.141 42.3308 23.934 42.4868 23.658C42.6488 23.382 42.7298 23.046 42.7298 22.65C42.7298 22.254 42.6518 21.918 42.4958 21.642C42.3398 21.366 42.1358 21.162 41.8838 21.03C41.6318 20.892 41.3588 20.823 41.0648 20.823C40.7648 20.823 40.4888 20.892 40.2368 21.03C39.9908 21.162 39.7928 21.366 39.6428 21.642C39.4928 21.918 39.4178 22.254 39.4178 22.65C39.4178 23.052 39.4898 23.391 39.6338 23.667C39.7838 23.943 39.9818 24.15 40.2278 24.288C40.4738 24.42 40.7438 24.486 41.0378 24.486ZM50.5206 20.103C50.9046 20.103 51.2466 20.184 51.5466 20.346C51.8466 20.502 52.0836 20.739 52.2576 21.057C52.4316 21.375 52.5186 21.762 52.5186 22.218V25.125H51.7086V22.335C51.7086 21.843 51.5856 21.468 51.3396 21.21C51.0996 20.946 50.7726 20.814 50.3586 20.814C49.9327 20.814 49.5937 20.952 49.3417 21.228C49.0897 21.498 48.9637 21.891 48.9637 22.407V25.125H48.1537V22.335C48.1537 21.843 48.0307 21.468 47.7847 21.21C47.5447 20.946 47.2177 20.814 46.8037 20.814C46.3777 20.814 46.0387 20.952 45.7867 21.228C45.5347 21.498 45.4087 21.891 45.4087 22.407V25.125H44.5897V20.193H45.4087V20.904C45.5707 20.646 45.7867 20.448 46.0567 20.31C46.3327 20.172 46.6357 20.103 46.9657 20.103C47.3797 20.103 47.7457 20.196 48.0637 20.382C48.3817 20.568 48.6187 20.841 48.7747 21.201C48.9127 20.853 49.1407 20.583 49.4587 20.391C49.7767 20.199 50.1306 20.103 50.5206 20.103Z" fill="#FBFBFB"/>
<path d="M30 15.875L41 6.5" stroke="#FBFBFB" stroke-width="2" stroke-linecap="round"/>
<path d="M41 6.5L52 15.875" stroke="#FBFBFB" stroke-width="2" stroke-linecap="round"/>
</g>
</g>
<defs>
<clipPath id="clip0_148_5078">
<rect width="64" height="36" fill="white"/>
</clipPath>
</defs>
</svg>
